BloodRayne.2005.BRrip.720p.Dual.Audio.Eng-Hindi~MSBHATTI

IMDB:- http://www.imdb.com/title/tt0383222/

PLOT:- In eighteenth century Romania, Rayne, a dhampir (half-human, half-vampire), prone to fits of blind blood rage but saddled with a compunction for humans, strives to avenge her mother's rape by her father, Kagan, King of Vampires. Two vampire hunters, Sebastian and Vladimir, from the Brimstone Society persuade her to join their cause.

Director: Uwe Boll
Writer: Guinevere Turner
Stars: Kristanna Loken, Ben Kingsley and Michelle Rodriguez

INFO:-
General
Complete name                    : BloodRayne.2005.BRrip.720p.Dual.Audio.Eng-Hindi~MSBHATTI
Format                           : Matroska
File size                        : 2.71 GiB
Duration                         : 1h 38mn
Overall bit rate                 : 3 934 Kbps
Encoded date                     : UTC 2011-12-08 12:44:05
Writing application              : mkvmerge v3.3.0 ('Language') built on Mar 24 2010 14:59:24
Writing library                  : libebml v0.8.0 + libmatroska v0.9.0

Video
ID                               : 1
Format                           : MPEG-4 Visual
Format profile                   : Advanced Simple@L5
Format settings, BVOP            : Yes
Format settings, QPel            : No
Format settings, GMC             : No warppoints
Format settings, Matrix          : Default (H.263)
Codec ID                         : XVID
Codec ID/Hint                    : XviD
Duration                         : 1h 38mn
Bit rate                         : 2 959 Kbps
Width                            : 1 280 pixels
Height                           : 720 pixels
Display aspect ratio             : 16:9
Frame rate                       : 23.976 fps
Color space                      : YUV
Chroma subsampling               : 4:2:0
Bit depth                        : 8 bits
Scan type                        : Progressive
Compression mode                 : Lossy
Bits/(Pixel*Frame)               : 0.134
Stream size                      : 2.04 GiB (75%)
Writing library                  : XviD 1.2.1 (UTC 2008-12-04)

Audio #1
ID                               : 2
Format                           : AC-3
Format/Info                      : Audio Coding 3
Mode extension                   : CM (complete main)
Codec ID                         : A_AC3
Duration                         : 1h 38mn
Bit rate mode                    : Constant
Bit rate                         : 640 Kbps
Channel(s)                       : 6 channels
Channel positions                : Front: L C R, Side: L R, LFE
Sampling rate                    : 48.0 KHz
Bit depth                        : 16 bits
Compression mode                 : Lossy
Stream size                      : 452 MiB (16%)
Title                            : MSBHATTI
Language                         : English

Audio #2
ID                               : 3
Format                           : MPEG Audio
Format version                   : Version 1
Format profile                   : Layer 3
Codec ID                         : A_MPEG/L3
Codec ID/Hint                    : MP3
Duration                         : 1h 38mn
Bit rate mode                    : Constant
Bit rate                         : 256 Kbps
Channel(s)                       : 2 channels
Sampling rate                    : 48.0 KHz
Compression mode                 : Lossy
Stream size                      : 181 MiB (7%)
Title                            : MSBHATTI
Language                         : Hindi

SCREENSHOTS:-
[IMG]http://i.imgur.com/as6Am.jpg[/IMG]
[IMG]http://i.imgur.com/kHGcK.jpg[/IMG]
[IMG]http://i.imgur.com/w8IBP.jpg[/IMG]
[IMG]http://i.imgur.com/Z4T6V.jpg[/IMG]
[IMG]http://i.imgur.com/9F2h5.jpg[/IMG]
[IMG]http://i.imgur.com/yaUuN.jpg[/IMG]
[IMG]http://i.imgur.com/qnuTz.jpg[/IMG]
[IMG]http://i.imgur.com/KrIh6.jpg[/IMG]

NOTE:- IF U LIKE MY WORK SO COMMENT PLZ

REGARDS

MSBHATTI